<?xml version="1.0" encoding="utf-8"?>
<!-- Generator: Adobe Illustrator 26.0.2, SVG Export Plug-In . SVG Version: 6.00 Build 0)  -->
<svg version="1.1" id="Calque_1" xmlns="http://www.w3.org/2000/svg" xmlns:xlink="http://www.w3.org/1999/xlink" x="0px" y="0px"
	 viewBox="0 0 1134.52 219.11" style="enable-background:new 0 0 1134.52 219.11;" xml:space="preserve">
<style type="text/css">
	.st0{display:none;fill:#0D0F1F;}
	.st1{fill:#3FB5E9;stroke:#3FB5E9;stroke-width:3;stroke-miterlimit:10;}
	.st2{fill:#FFFFFF;}
	.st3{opacity:0.5;fill:#302627;}
	.st4{fill:#FBBB1E;}
	.st5{fill:#E53637;}
	.st6{opacity:0.3;fill:url(#SVGID_1_);}
</style>
<rect x="-36.87" y="-324.33" class="st0" width="1190.55" height="841.89"/>
<g>
	<path class="st1" d="M162.96,215.08h-42.32l-12.61-41.95H63.05l-11.64,41.95H10.53l50.7-165.87h50.29L162.96,215.08z
		 M122.44,212.65h37.23L109.73,51.63H63.02L13.81,212.65h35.76L61.2,170.7h48.63L122.44,212.65z M105.21,145.48H65.86l10.13-36.22
		c1.59-5.64,3.11-12.37,4.57-18.88c0.99-4.4,1.96-8.72,2.94-12.62l0.23-0.92h2.37l1.46,5.87c2.14,8.64,4.57,18.44,7,26.52
		L105.21,145.48z M69.06,143.06h32.92l-9.73-33.12c-2.44-8.13-4.88-17.96-7.03-26.63l-0.28-1.14c-0.66,2.81-1.33,5.77-2,8.76
		c-1.47,6.54-3,13.3-4.6,19L69.06,143.06z"/>
	<path class="st1" d="M294.21,215.08h-39.28v-66.93c0-16.25-5.87-24.49-17.46-24.49c-11.96,0-16.44,9.97-17.53,13.02
		c-0.87,1.96-1.39,5.3-1.39,8.81v69.6h-39.28v-81.96c0-15-0.49-27.51-0.97-37.78l-0.06-1.27h34.37l1.57,14.99
		c6.52-8.85,19.08-17.66,36.39-17.66c27.33,0,43.65,19.49,43.65,52.14V215.08z M257.35,212.65h34.44v-69.12
		c0-31.59-15.03-49.71-41.23-49.71c-22.61,0-33.62,15.29-35.6,18.36l-0.36,0.55h-2.48l-1.7-16.25h-29.65
		c0.46,10.05,0.91,22.18,0.91,36.62v79.54h34.44v-67.18c0-3.88,0.58-7.51,1.56-9.71c2.49-6.99,9.02-14.54,19.78-14.54
		c13.01,0,19.88,9.31,19.88,26.92V212.65z"/>
	<path class="st1" d="M360.66,215.08h-39.28V94.07h39.28V215.08z M323.8,212.65h34.44V96.49H323.8V212.65z M340.78,81.94
		c-5.98,0-11.35-2.12-15.1-5.96c-3.52-3.61-5.39-8.48-5.27-13.71c-0.12-5.36,1.74-10.32,5.26-13.91c3.75-3.83,9.2-5.94,15.36-5.94
		c12.01,0,20.59,8.17,20.86,19.86v0.03C361.87,73.68,353,81.94,340.78,81.94z M341.02,44.84c-5.5,0-10.34,1.85-13.62,5.21
		c-3.05,3.12-4.67,7.46-4.57,12.22c-0.11,4.63,1.52,8.88,4.58,12.02c3.29,3.37,8.04,5.23,13.37,5.23c10.82,0,18.67-7.24,18.67-17.2
		C359.21,51.86,351.8,44.84,341.02,44.84z"/>
	<path class="st1" d="M430.26,217.5c-19.67,0-38.1-5.23-46.9-10.09l-0.81-0.45l8.11-32.95l1.36,0.7
		c12.29,6.29,27.41,10.05,40.43,10.05c15.72,0,24.74-6.01,24.74-16.49c0-9.25-6.71-14.78-26.6-21.9
		c-30.3-10.55-45.67-27.17-45.67-49.4c0-30.17,25.34-50.44,63.05-50.44c15.68,0,29.88,2.81,42.21,8.35l0.95,0.43l-8.91,32.23
		l-1.31-0.63c-10.53-5.07-21.86-7.64-33.67-7.64c-13.7,0-22.55,5.71-22.55,14.55c0,9.69,9,14.12,29.53,21.9
		c29.89,11.05,43.22,26.44,43.22,49.88C497.43,197.13,471.07,217.5,430.26,217.5z M385.34,205.72c8.83,4.59,26.27,9.36,44.92,9.36
		c47.74,0,64.75-25.56,64.75-49.47c0-22.28-12.84-36.96-41.65-47.61c-21.63-8.2-31.1-12.97-31.1-24.17
		c0-7.83,6.54-16.97,24.98-16.97c11.69,0,22.92,2.44,33.41,7.26l7.58-27.44c-11.79-5.12-25.33-7.72-40.27-7.72
		c-36.26,0-60.63,19.3-60.63,48.02c0,21.38,14.41,36.79,44.05,47.11c17.87,6.4,28.22,12.41,28.22,24.18
		c0,11.85-10.15,18.92-27.16,18.92c-12.91,0-27.81-3.59-40.17-9.63L385.34,205.72z"/>
	<path class="st1" d="M561.71,217.5c-11.68,0-22.08-3.85-28.52-10.56c-7.08-7.33-10.52-19.11-10.52-36v-47.29H506.9V94.07h15.76
		V68.61l38.56-8.8v34.26h26.44v29.58h-26.44v41.71c0,14.5,3.49,19.64,13.34,19.64c3.69,0,7.19-0.31,10.7-0.95l1.42-0.26l0.26,30.16
		l-0.77,0.31C581.01,216.32,572.1,217.5,561.71,217.5z M509.32,121.23h15.76v49.71c0,16.23,3.22,27.46,9.84,34.32
		c5.9,6.15,15.91,9.82,26.77,9.82c9.44,0,17.85-1.03,22.79-2.78l-0.22-25.62c-3.18,0.5-6.37,0.75-9.71,0.75
		c-13.08,0-15.76-8.82-15.76-22.07v-44.13h26.44V96.49H558.8V62.85l-33.71,7.69v25.95h-15.76V121.23z"/>
	<path class="st1" d="M645.86,215.08h-39.28v-80.75c0-17.23-0.48-28.71-0.97-38.99l-0.06-1.27h34.18l1.09,19.6
		c6.73-15.35,20.61-22.27,31.96-22.27c3.46,0,5.2,0,7.98,0.5l0.99,0.18v37.14l-1.43-0.26c-2.72-0.49-5.78-0.95-9.73-0.95
		c-12.69,0-21.67,6.62-24.04,17.71c-0.45,2.26-0.7,5.1-0.7,7.99V215.08z M609,212.65h34.44v-58.93c0-3.09,0.26-6.03,0.75-8.48
		c2.62-12.31,12.49-19.65,26.41-19.65c3.46,0,6.25,0.33,8.73,0.74V94.13c-2.04-0.3-3.68-0.3-6.55-0.3
		c-11.21,0-25.11,7.32-30.87,23.68l-0.29,0.81h-2.97l-1.21-21.83h-29.35c0.47,9.99,0.91,21.26,0.91,37.83V212.65z"/>
	<path class="st1" d="M754.5,217.5c-40.39,0-64.51-23.03-64.51-61.6c0-16.24,5.38-32.16,14.76-43.69
		c11.09-13.62,27.12-20.82,46.35-20.82c26.14,0,54.08,15.86,54.08,60.38c0,5.91-0.64,11.5-1.23,14.77l-0.18,0.99h-76.05
		c2.02,14.81,17.76,20.13,32.11,20.13c11.93,0,21.92-1.48,32.37-4.79l1.3-0.41l5.3,27.3l-0.93,0.37
		C785.83,214.96,770.83,217.5,754.5,217.5z M751.11,93.83c-40.32,0-58.69,32.18-58.69,62.08c0,37.05,23.21,59.17,62.08,59.17
		c15.61,0,29.94-2.36,41.54-6.82l-4.4-22.66c-10.12,3.07-20.27,4.5-31.81,4.5c-19.92,0-33.53-9.29-34.67-23.67l-0.1-1.31h76.68
		c0.35-2.19,1.02-7.22,1.02-13.34C802.76,123.76,789.19,93.83,751.11,93.83z M770.99,142.32h-46.2l0.13-1.33
		c0.91-9.32,6.98-25.1,24-25.1c16.29,0,22.07,13.59,22.07,25.22V142.32z M727.5,139.9h41.04c-0.24-5.56-2.44-21.58-19.62-21.58
		C734.41,118.32,728.74,131.3,727.5,139.9z"/>
	<path class="st1" d="M856.61,217.75c-19.16,0-39.53-13.18-39.53-37.59c0-11.65,3.85-21.39,11.45-28.94
		c11.57-11.51,31.66-17.59,58.15-17.62v-0.48c0-6.42-3.53-14.07-20.37-14.07c-12.46,0-25.1,4.41-32.1,8.79l-1.36,0.85l-7.5-26.24
		l0.84-0.47c4.44-2.48,20.94-10.58,46.67-10.58c44.09,0,53.35,28.48,53.35,52.38v41.23c0,12.62,0.6,22.79,1.68,28.64l0.27,1.43
		h-35.69L890.42,204C882.47,212.88,870.53,217.75,856.61,217.75z M886.87,136.02c-25.93,0-45.49,5.84-56.63,16.92
		c-7.13,7.08-10.74,16.24-10.74,27.22c0,17.48,12.74,35.17,37.11,35.17c13.82,0,25.54-5.01,33.01-14.11l0.36-0.44h2.31l2.18,11.88
		h30.78c-0.95-6.13-1.47-15.85-1.47-27.65v-41.23c0-41.29-27.7-49.96-50.93-49.96c-23.73,0-39.34,7-44.64,9.82l6.09,21.32
		c7.5-4.27,19.85-8.34,32.01-8.34c19.83,0,22.79,10.33,22.79,16.49v2.92l-1.22-0.01C887.55,136.02,887.2,136.02,886.87,136.02z
		 M869.22,191.8c-9.72,0-15.76-5.86-15.76-15.28c0-4.78,1.6-8.78,4.74-11.89c5.56-5.49,16.05-8.23,30.92-7.99l1.2,0.01v14.05
		c0,2.32-0.27,4.6-0.76,6.6C886.79,185.87,878.44,191.8,869.22,191.8z M887.64,159.05c-13.5,0-22.83,2.45-27.74,7.3
		c-2.71,2.67-4.02,6-4.02,10.17c0,8.05,4.99,12.86,13.34,12.86c8.18,0,15.59-5.24,18.01-12.74c0.43-1.73,0.67-3.82,0.67-5.94v-11.65
		C887.81,159.05,887.73,159.05,887.64,159.05z"/>
	<path class="st1" d="M1134.52,215.08h-38.32v-65.72c0-17.22-5.47-25.95-16.25-25.95c-8.61,0-13.82,6.22-15.83,12.04
		c-0.96,2.64-1.39,6.45-1.39,9.06v70.57h-38.32v-67.66c0-8.97-2.05-24.01-15.76-24.01c-8.52,0-13.9,6.48-16.08,12.54
		c-1.24,2.98-1.38,6.45-1.38,8.8v70.33h-38.32v-81.96c0-14.93-0.49-27.48-0.97-37.78l-0.06-1.27h33.4l1.57,14.79
		c8.57-11.59,20.55-17.46,35.66-17.46c15.05,0,27.23,7.2,32.94,19.35c4.13-5.41,9.18-10,14.68-13.36c6.81-4.04,14.39-6,23.18-6
		c25.81,0,41.22,19.67,41.22,52.62V215.08z M1098.63,212.65h33.47v-68.63c0-31.9-14.14-50.2-38.8-50.2
		c-8.35,0-15.52,1.85-21.94,5.65c-5.64,3.44-10.8,8.27-14.91,13.97l-0.36,0.5h-1.92l-0.31-0.75c-5-12.13-16.73-19.38-31.38-19.38
		c-15,0-26.73,6.1-34.89,18.14l-0.36,0.53h-2.46l-1.7-16.01H954.4c0.46,10.08,0.91,22.24,0.91,36.62v79.54h33.47v-67.9
		c0-2.56,0.16-6.35,1.55-9.68c2.44-6.78,8.56-14.08,18.34-14.08c11.56,0,18.19,9.63,18.19,26.43v65.23h33.47v-68.14
		c0-2.62,0.4-6.77,1.53-9.87c2.27-6.59,8.23-13.65,18.11-13.65c8.52,0,18.67,4.92,18.67,28.37V212.65z"/>
</g>
<g>
	<path class="st2" d="M54.85,173.13l-11.64,41.95H4.9L54.85,51.63h48.5l50.68,163.45h-39.77l-12.61-41.95H54.85z M96.32,145.48
		L86.14,110.8c-2.91-9.7-5.82-21.83-8.25-31.53h-0.48c-2.43,9.7-4.85,22.07-7.52,31.53l-9.7,34.68H96.32z"/>
	<path class="st2" d="M173.2,134.33c0-14.79-0.48-27.4-0.97-37.83h32.01l1.7,16.25h0.73c4.85-7.52,16.98-18.92,36.62-18.92
		c24.25,0,42.44,16,42.44,50.93v70.33h-36.86v-65.72c0-15.28-5.33-25.71-18.67-25.71c-10.19,0-16.25,7.03-18.67,13.82
		c-0.97,2.18-1.46,5.82-1.46,9.21v68.39H173.2V134.33z"/>
	<path class="st2" d="M353.39,63.51c0,10.19-7.76,18.43-19.89,18.43c-11.64,0-19.4-8.25-19.16-18.43
		c-0.24-10.67,7.52-18.67,19.4-18.67S353.15,52.84,353.39,63.51z M315.32,215.08V96.49h36.86v118.59H315.32z"/>
	<path class="st2" d="M384.19,177.01c9.94,5.09,25.22,10.18,40.98,10.18c16.98,0,25.95-7.03,25.95-17.7c0-10.18-7.76-16-27.4-23.04
		c-27.16-9.46-44.86-24.49-44.86-48.26c0-27.89,23.28-49.23,61.84-49.23c18.43,0,32.01,3.88,41.71,8.24l-8.25,29.83
		c-6.55-3.15-18.19-7.76-34.19-7.76c-16,0-23.76,7.27-23.76,15.76c0,10.43,9.21,15.03,30.31,23.04
		c28.86,10.67,42.44,25.71,42.44,48.74c0,27.4-21.1,50.68-65.96,50.68c-18.67,0-37.1-4.85-46.32-9.94L384.19,177.01z"/>
	<path class="st2" d="M552.74,62.54v33.95h26.43v27.16h-26.43v42.92c0,14.31,3.39,20.86,14.55,20.86c4.61,0,8.24-0.48,10.91-0.97
		l0.24,27.89c-4.85,1.94-13.58,3.15-24.01,3.15c-11.88,0-21.82-4.12-27.65-10.19c-6.79-7.03-10.18-18.43-10.18-35.16v-48.5h-15.76
		V96.49h15.76V70.79L552.74,62.54z"/>
	<path class="st2" d="M600.51,135.54c0-17.46-0.48-28.86-0.97-39.04h31.77l1.21,21.83h0.97c6.06-17.22,20.61-24.49,32.01-24.49
		c3.39,0,5.09,0,7.76,0.48v34.68c-2.67-0.48-5.82-0.97-9.94-0.97c-13.58,0-22.8,7.27-25.22,18.67c-0.49,2.43-0.73,5.34-0.73,8.25
		v60.14h-36.86V135.54z"/>
	<path class="st2" d="M719.1,167.55c1.21,15.28,16.25,22.55,33.46,22.55c12.61,0,22.8-1.7,32.74-4.85l4.85,24.98
		c-12.13,4.85-26.92,7.27-42.92,7.27c-40.26,0-63.29-23.28-63.29-60.38c0-30.07,18.67-63.29,59.9-63.29
		c38.32,0,52.87,29.83,52.87,59.17c0,6.31-0.73,11.88-1.21,14.55H719.1z M762.51,142.33c0-8.97-3.88-24.01-20.86-24.01
		c-15.52,0-21.83,14.07-22.8,24.01H762.51z"/>
	<path class="st2" d="M886.2,215.08l-2.18-11.88h-0.73c-7.76,9.46-19.89,14.55-33.95,14.55c-24.01,0-38.32-17.46-38.32-36.38
		c0-30.8,27.65-45.59,69.6-45.35v-1.7c0-6.31-3.39-15.28-21.58-15.28c-12.13,0-24.98,4.12-32.74,8.97l-6.79-23.77
		c8.25-4.61,24.49-10.43,46.08-10.43c39.53,0,52.14,23.28,52.14,51.17v41.23c0,11.4,0.49,22.31,1.7,28.86H886.2z M881.83,159.06
		c-19.4-0.24-34.44,4.37-34.44,18.67c0,9.46,6.3,14.07,14.55,14.07c9.21,0,16.73-6.06,19.16-13.58c0.49-1.94,0.73-4.12,0.73-6.31
		V159.06z"/>
	<path class="st2" d="M946.83,134.33c0-14.79-0.48-27.4-0.97-37.83h31.04l1.7,16.01h0.73c5.09-7.52,15.52-18.67,35.89-18.67
		c15.28,0,27.4,7.76,32.5,20.13h0.49c4.37-6.06,9.7-10.91,15.28-14.31c6.55-3.88,13.82-5.82,22.55-5.82c22.8,0,40.01,16,40.01,51.41
		v69.84h-35.89v-64.51c0-17.22-5.58-27.16-17.46-27.16c-8.49,0-14.55,5.82-16.98,12.85c-0.97,2.67-1.45,6.55-1.45,9.46v69.36h-35.89
		v-66.45c0-15.03-5.34-25.22-16.98-25.22c-9.46,0-15.03,7.27-17.22,13.34c-1.21,2.91-1.45,6.31-1.45,9.22v69.11h-35.89V134.33z"/>
</g>
<g>
	<g>
		<path class="st3" d="M115.01,48.99c0,0,4.94,1.53-33.58,18.98S19.25,78.26,19.25,78.26s34.08-10.35,54.76-17.93
			c20.68-7.59,39.51-22.42,39.51-22.42s0.8,0.3,1.5,5.54S115.01,48.99,115.01,48.99z"/>
		<g>
			<path class="st4" d="M13.75,66.35c0,0-13.75,10.72-13.75,15.03c0,4.31,36.02,1,77.15-15.03s53.81-23.91,59.1-32.16
				c5.29-8.25-18.23-5.77-26.75-1.59c2.32-8.91-9.43-44.95-59.36-28.24S13.75,66.35,13.75,66.35z"/>
		</g>
		<path class="st5" d="M109.5,30.23c0,0-19.74,11.61-39.14,18.45s-56.61,15.3-56.61,15.3s34.08-14.84,54.76-22.42
			s39.51-22.42,39.51-22.42s0.8,0.3,1.5,5.54S109.5,30.23,109.5,30.23z"/>
	</g>
	
		<radialGradient id="SVGID_1_" cx="150.7361" cy="39.6408" r="17.6283" gradientTransform="matrix(1.7682 -0.1819 -0.1819 1.3629 -204.8113 -4.5634)" gradientUnits="userSpaceOnUse">
		<stop  offset="0" style="stop-color:#F8FAFD;stop-opacity:0.7049"/>
		<stop  offset="0.0395" style="stop-color:#EDF1FA;stop-opacity:0.677"/>
		<stop  offset="0.2255" style="stop-color:#BDCEEB;stop-opacity:0.5459"/>
		<stop  offset="0.4066" style="stop-color:#91B1DE;stop-opacity:0.4183"/>
		<stop  offset="0.5786" style="stop-color:#6A9BD3;stop-opacity:0.297"/>
		<stop  offset="0.7393" style="stop-color:#498DCB;stop-opacity:0.1837"/>
		<stop  offset="0.8843" style="stop-color:#3084C6;stop-opacity:0.0815"/>
		<stop  offset="1" style="stop-color:#2581C4;stop-opacity:0"/>
	</radialGradient>
	<path class="st6" d="M92.36,7.54c2.97,7.74-11.58,20.51-32.48,28.52s-40.26,8.22-43.23,0.48S28.23,16.03,49.13,8.02
		S89.39-0.2,92.36,7.54z"/>
</g>
</svg>
